<svg xmlns="http://www.w3.org/2000/svg" xmlns:xlink="http://www.w3.org/1999/xlink" width="1024" zoomAndPan="magnify" viewBox="0 0 768 767.999994" height="1024" preserveAspectRatio="xMidYMid meet" version="1.0"><path fill="#1c7ed6" d="M 384 0.00390625 C 171.925781 0.00390625 0 171.929688 0 384.003906 C 0 596.078125 171.925781 768.003906 384 768.003906 C 407.230469 768.003906 429.980469 765.941406 452.074219 761.988281 C 599.160156 735.671875 717.226562 625.605469 755.136719 482.886719 C 763.519531 451.339844 767.988281 418.199219 767.988281 384.015625 C 768.003906 171.925781 596.078125 0.00390625 384.003906 0.00390625 Z M 502.304688 305.957031 C 502.304688 350.066406 478.160156 388.535156 442.371094 408.878906 L 497.535156 580.363281 L 270.457031 580.363281 L 325.621094 408.878906 C 289.832031 388.535156 265.6875 350.066406 265.6875 305.957031 C 265.6875 240.617188 318.65625 187.644531 384 187.644531 C 424.214844 187.644531 459.738281 207.710938 481.117188 238.371094 C 494.46875 257.542969 502.296875 280.835938 502.296875 305.972656 Z M 502.304688 305.957031 " fill-opacity="1" fill-rule="nonzero"/></svg>