<svg xmlns="http://www.w3.org/2000/svg" width="1071" zoomAndPan="magnify"
     viewBox="0 0 803.25 179.249993" height="239" preserveAspectRatio="xMidYMid meet" version="1.0">
    <defs>
        <g/>
        <clipPath id="a26cd7c858">
            <path d="M 1.300781 23.308594 L 132.003906 23.308594 L 132.003906 154.011719 L 1.300781 154.011719 Z M 1.300781 23.308594 "
                  clip-rule="nonzero"/>
        </clipPath>
    </defs>
    <g clip-path="url(#a26cd7c858)">
        <path fill="#1c7ed6"
              d="M 66.78125 23.308594 C 30.617188 23.308594 1.300781 52.625 1.300781 88.789062 C 1.300781 124.953125 30.617188 154.269531 66.78125 154.269531 C 70.742188 154.269531 74.621094 153.917969 78.386719 153.242188 C 103.46875 148.753906 123.601562 129.984375 130.066406 105.648438 C 131.496094 100.269531 132.257812 94.621094 132.257812 88.789062 C 132.261719 52.625 102.945312 23.308594 66.78125 23.308594 Z M 86.953125 75.480469 C 86.953125 83 82.835938 89.5625 76.734375 93.03125 L 86.140625 122.273438 L 47.417969 122.269531 L 56.824219 93.03125 C 50.722656 89.5625 46.605469 83 46.605469 75.480469 C 46.605469 64.335938 55.636719 55.304688 66.78125 55.304688 C 73.636719 55.304688 79.695312 58.726562 83.339844 63.953125 C 85.617188 67.222656 86.953125 71.195312 86.953125 75.480469 Z M 86.953125 75.480469 "
              fill-opacity="1" fill-rule="nonzero"/>
    </g>
    <g fill="#1971c2" fill-opacity="1">
        <g transform="translate(173.870969, 118.818243)">
            <g>
                <path d="M 52.03125 -18.546875 C 52.03125 -14.609375 51 -11.128906 48.9375 -8.109375 C 46.875 -5.085938 43.921875 -2.71875 40.078125 -1 C 36.234375 0.707031 31.609375 1.5625 26.203125 1.5625 C 20.210938 1.5625 15.191406 0.6875 11.140625 -1.0625 C 7.097656 -2.820312 3.75 -5.003906 1.09375 -7.609375 L 8.703125 -16.03125 C 11.054688 -13.988281 13.648438 -12.410156 16.484375 -11.296875 C 19.328125 -10.179688 22.441406 -9.625 25.828125 -9.625 C 27.941406 -9.625 29.789062 -9.925781 31.375 -10.53125 C 32.96875 -11.144531 34.207031 -12.03125 35.09375 -13.1875 C 35.976562 -14.351562 36.421875 -15.757812 36.421875 -17.40625 C 36.421875 -18.957031 36.066406 -20.269531 35.359375 -21.34375 C 34.660156 -22.414062 33.476562 -23.378906 31.8125 -24.234375 C 30.144531 -25.085938 27.832031 -25.957031 24.875 -26.84375 C 19.925781 -28.363281 15.945312 -30.039062 12.9375 -31.875 C 9.925781 -33.707031 7.738281 -35.828125 6.375 -38.234375 C 5.019531 -40.648438 4.34375 -43.460938 4.34375 -46.671875 C 4.34375 -50.554688 5.421875 -53.867188 7.578125 -56.609375 C 9.734375 -59.359375 12.628906 -61.457031 16.265625 -62.90625 C 19.898438 -64.363281 23.898438 -65.09375 28.265625 -65.09375 C 33.179688 -65.09375 37.515625 -64.378906 41.265625 -62.953125 C 45.023438 -61.535156 48.28125 -59.515625 51.03125 -56.890625 L 43.921875 -48.734375 C 41.785156 -50.535156 39.476562 -51.867188 37 -52.734375 C 34.53125 -53.609375 32.015625 -54.046875 29.453125 -54.046875 C 27.554688 -54.046875 25.890625 -53.804688 24.453125 -53.328125 C 23.023438 -52.859375 21.910156 -52.164062 21.109375 -51.25 C 20.316406 -50.332031 19.921875 -49.1875 19.921875 -47.8125 C 19.921875 -46.476562 20.300781 -45.351562 21.0625 -44.4375 C 21.832031 -43.519531 23.160156 -42.65625 25.046875 -41.84375 C 26.941406 -41.03125 29.570312 -40.09375 32.9375 -39.03125 C 36.9375 -37.800781 40.363281 -36.335938 43.21875 -34.640625 C 46.070312 -32.953125 48.253906 -30.820312 49.765625 -28.25 C 51.273438 -25.6875 52.03125 -22.453125 52.03125 -18.546875 Z M 52.03125 -18.546875 "/>
            </g>
        </g>
    </g>
    <g fill="#1971c2" fill-opacity="1">
        <g transform="translate(227.462524, 118.818243)">
            <g>
                <path d="M 18.96875 -20.109375 C 19.300781 -17.453125 19.992188 -15.304688 21.046875 -13.671875 C 22.097656 -12.035156 23.445312 -10.84375 25.09375 -10.09375 C 26.75 -9.351562 28.597656 -8.984375 30.640625 -8.984375 C 32.867188 -8.984375 35.019531 -9.347656 37.09375 -10.078125 C 39.175781 -10.804688 41.179688 -11.785156 43.109375 -13.015625 L 48.921875 -5.125 C 46.628906 -3.175781 43.859375 -1.570312 40.609375 -0.3125 C 37.359375 0.9375 33.65625 1.5625 29.5 1.5625 C 23.9375 1.5625 19.273438 0.457031 15.515625 -1.75 C 11.765625 -3.96875 8.941406 -7.015625 7.046875 -10.890625 C 5.160156 -14.773438 4.21875 -19.238281 4.21875 -24.28125 C 4.21875 -29.070312 5.128906 -33.425781 6.953125 -37.34375 C 8.785156 -41.269531 11.46875 -44.398438 15 -46.734375 C 18.53125 -49.078125 22.84375 -50.25 27.9375 -50.25 C 32.582031 -50.25 36.609375 -49.253906 40.015625 -47.265625 C 43.421875 -45.285156 46.0625 -42.429688 47.9375 -38.703125 C 49.8125 -34.972656 50.75 -30.5 50.75 -25.28125 C 50.75 -24.457031 50.722656 -23.570312 50.671875 -22.625 C 50.628906 -21.675781 50.566406 -20.835938 50.484375 -20.109375 Z M 27.9375 -40.53125 C 25.34375 -40.53125 23.25 -39.597656 21.65625 -37.734375 C 20.070312 -35.878906 19.113281 -32.90625 18.78125 -28.8125 L 36.640625 -28.8125 C 36.609375 -32.351562 35.921875 -35.191406 34.578125 -37.328125 C 33.234375 -39.460938 31.019531 -40.53125 27.9375 -40.53125 Z M 27.9375 -40.53125 "/>
            </g>
        </g>
    </g>
    <g fill="#1971c2" fill-opacity="1">
        <g transform="translate(281.054078, 118.818243)">
            <g>
                <path d="M 32.203125 -9.84375 C 34.179688 -9.84375 36.050781 -10.234375 37.8125 -11.015625 C 39.570312 -11.796875 41.320312 -12.796875 43.0625 -14.015625 L 49.515625 -4.859375 C 47.378906 -3.023438 44.773438 -1.492188 41.703125 -0.265625 C 38.640625 0.953125 35.210938 1.5625 31.421875 1.5625 C 26.203125 1.5625 21.710938 0.484375 17.953125 -1.671875 C 14.203125 -3.828125 11.316406 -6.816406 9.296875 -10.640625 C 7.285156 -14.472656 6.28125 -18.925781 6.28125 -24 C 6.28125 -29.070312 7.304688 -33.582031 9.359375 -37.53125 C 11.421875 -41.488281 14.351562 -44.597656 18.15625 -46.859375 C 21.957031 -49.117188 26.472656 -50.25 31.703125 -50.25 C 35.390625 -50.25 38.675781 -49.734375 41.5625 -48.703125 C 44.445312 -47.679688 47.097656 -46.164062 49.515625 -44.15625 L 43.234375 -35.453125 C 41.585938 -36.609375 39.847656 -37.507812 38.015625 -38.15625 C 36.179688 -38.800781 34.273438 -39.125 32.296875 -39.125 C 29.023438 -39.125 26.390625 -37.96875 24.390625 -35.65625 C 22.390625 -33.351562 21.390625 -29.46875 21.390625 -24 C 21.390625 -20.425781 21.863281 -17.609375 22.8125 -15.546875 C 23.757812 -13.484375 25.046875 -12.015625 26.671875 -11.140625 C 28.304688 -10.273438 30.148438 -9.84375 32.203125 -9.84375 Z M 32.203125 -9.84375 "/>
            </g>
        </g>
    </g>
    <g fill="#1971c2" fill-opacity="1">
        <g transform="translate(334.645632, 118.818243)">
            <g>
                <path d="M 20.890625 -48.640625 L 20.890625 -15.34375 C 20.890625 -12.988281 21.320312 -11.367188 22.1875 -10.484375 C 23.0625 -9.597656 24.273438 -9.15625 25.828125 -9.15625 C 27.328125 -9.15625 28.820312 -9.628906 30.3125 -10.578125 C 31.8125 -11.523438 33.066406 -12.804688 34.078125 -14.421875 L 34.078125 -48.640625 L 48.546875 -48.640625 L 48.546875 0 L 35.90625 0 L 35.265625 -5.6875 C 33.617188 -3.300781 31.453125 -1.492188 28.765625 -0.265625 C 26.078125 0.953125 23.269531 1.5625 20.34375 1.5625 C 15.632812 1.5625 12.132812 0.195312 9.84375 -2.53125 C 7.550781 -5.269531 6.40625 -8.945312 6.40625 -13.5625 L 6.40625 -48.640625 Z M 20.890625 -48.640625 "/>
            </g>
        </g>
    </g>
    <g fill="#1971c2" fill-opacity="1">
        <g transform="translate(388.237187, 118.818243)">
            <g>
                <path d="M 6.875 0 L 6.875 -9.703125 L 13.28125 -9.703125 L 13.28125 -39.03125 L 6.875 -39.03125 L 6.875 -48.640625 L 24.328125 -48.640625 L 26.984375 -37.703125 C 28.722656 -41.878906 30.941406 -44.988281 33.640625 -47.03125 C 36.347656 -49.082031 39.65625 -50.109375 43.5625 -50.109375 C 45.207031 -50.109375 46.671875 -49.976562 47.953125 -49.71875 C 49.234375 -49.457031 50.441406 -49.097656 51.578125 -48.640625 L 47.171875 -36.6875 C 46.285156 -36.9375 45.398438 -37.117188 44.515625 -37.234375 C 43.628906 -37.359375 42.65625 -37.421875 41.59375 -37.421875 C 38.414062 -37.421875 35.628906 -36.125 33.234375 -33.53125 C 30.835938 -30.9375 29.007812 -27.640625 27.75 -23.640625 L 27.75 -9.703125 L 37.375 -9.703125 L 37.375 0 Z M 39.796875 -28.3125 L 39.796875 -42.5 L 41.953125 -48.640625 L 51.578125 -48.640625 L 48.875 -28.3125 Z M 39.796875 -28.3125 "/>
            </g>
        </g>
    </g>
    <g fill="#1971c2" fill-opacity="1">
        <g transform="translate(441.828741, 118.818243)">
            <g>
                <path d="M 18.96875 -20.109375 C 19.300781 -17.453125 19.992188 -15.304688 21.046875 -13.671875 C 22.097656 -12.035156 23.445312 -10.84375 25.09375 -10.09375 C 26.75 -9.351562 28.597656 -8.984375 30.640625 -8.984375 C 32.867188 -8.984375 35.019531 -9.347656 37.09375 -10.078125 C 39.175781 -10.804688 41.179688 -11.785156 43.109375 -13.015625 L 48.921875 -5.125 C 46.628906 -3.175781 43.859375 -1.570312 40.609375 -0.3125 C 37.359375 0.9375 33.65625 1.5625 29.5 1.5625 C 23.9375 1.5625 19.273438 0.457031 15.515625 -1.75 C 11.765625 -3.96875 8.941406 -7.015625 7.046875 -10.890625 C 5.160156 -14.773438 4.21875 -19.238281 4.21875 -24.28125 C 4.21875 -29.070312 5.128906 -33.425781 6.953125 -37.34375 C 8.785156 -41.269531 11.46875 -44.398438 15 -46.734375 C 18.53125 -49.078125 22.84375 -50.25 27.9375 -50.25 C 32.582031 -50.25 36.609375 -49.253906 40.015625 -47.265625 C 43.421875 -45.285156 46.0625 -42.429688 47.9375 -38.703125 C 49.8125 -34.972656 50.75 -30.5 50.75 -25.28125 C 50.75 -24.457031 50.722656 -23.570312 50.671875 -22.625 C 50.628906 -21.675781 50.566406 -20.835938 50.484375 -20.109375 Z M 27.9375 -40.53125 C 25.34375 -40.53125 23.25 -39.597656 21.65625 -37.734375 C 20.070312 -35.878906 19.113281 -32.90625 18.78125 -28.8125 L 36.640625 -28.8125 C 36.609375 -32.351562 35.921875 -35.191406 34.578125 -37.328125 C 33.234375 -39.460938 31.019531 -40.53125 27.9375 -40.53125 Z M 27.9375 -40.53125 "/>
            </g>
        </g>
    </g>
    <g fill="#1971c2" fill-opacity="1">
        <g transform="translate(496.442107, 118.818243)">
            <g>
                <path d="M 31.96875 0 L 15.25 -51.078125 C 15.46875 -49.703125 15.707031 -48.039062 15.96875 -46.09375 C 16.226562 -44.15625 16.476562 -42.003906 16.71875 -39.640625 C 16.957031 -37.273438 17.15625 -34.765625 17.3125 -32.109375 C 17.46875 -29.453125 17.546875 -26.734375 17.546875 -23.953125 L 17.546875 0 L 4.765625 0 L 4.765625 -63.484375 L 23.5 -63.484375 L 39.71875 -12.6875 C 39.375 -14.613281 39.023438 -16.910156 38.671875 -19.578125 C 38.328125 -22.253906 38.03125 -25.238281 37.78125 -28.53125 C 37.539062 -31.832031 37.421875 -35.375 37.421875 -39.15625 L 37.421875 -63.484375 L 50.203125 -63.484375 L 50.203125 0 Z M 31.96875 0 "/>
            </g>
        </g>
    </g>
    <g fill="#1971c2" fill-opacity="1">
        <g transform="translate(550.033662, 118.818243)">
            <g>
                <path d="M 27.484375 -50.25 C 32.492188 -50.25 36.753906 -49.175781 40.265625 -47.03125 C 43.773438 -44.894531 46.460938 -41.894531 48.328125 -38.03125 C 50.191406 -34.175781 51.125 -29.648438 51.125 -24.453125 C 51.125 -19.054688 50.179688 -14.410156 48.296875 -10.515625 C 46.421875 -6.617188 43.726562 -3.628906 40.21875 -1.546875 C 36.707031 0.523438 32.460938 1.5625 27.484375 1.5625 C 22.535156 1.5625 18.296875 0.539062 14.765625 -1.5 C 11.242188 -3.550781 8.539062 -6.515625 6.65625 -10.390625 C 4.78125 -14.273438 3.84375 -18.9375 3.84375 -24.375 C 3.84375 -29.53125 4.78125 -34.046875 6.65625 -37.921875 C 8.539062 -41.804688 11.242188 -44.832031 14.765625 -47 C 18.296875 -49.164062 22.535156 -50.25 27.484375 -50.25 Z M 27.484375 -39.578125 C 24.523438 -39.578125 22.332031 -38.363281 20.90625 -35.9375 C 19.488281 -33.507812 18.78125 -29.65625 18.78125 -24.375 C 18.78125 -19 19.488281 -15.101562 20.90625 -12.6875 C 22.332031 -10.269531 24.523438 -9.0625 27.484375 -9.0625 C 30.441406 -9.0625 32.628906 -10.269531 34.046875 -12.6875 C 35.472656 -15.101562 36.1875 -19.023438 36.1875 -24.453125 C 36.1875 -29.710938 35.472656 -33.546875 34.046875 -35.953125 C 32.628906 -38.367188 30.441406 -39.578125 27.484375 -39.578125 Z M 27.484375 -39.578125 "/>
            </g>
        </g>
    </g>
    <g fill="#1971c2" fill-opacity="1">
        <g transform="translate(603.625216, 118.818243)">
            <g>
                <path d="M 50.203125 -2.84375 C 48.304688 -1.613281 46.015625 -0.570312 43.328125 0.28125 C 40.640625 1.132812 37.617188 1.5625 34.265625 1.5625 C 27.910156 1.5625 23.191406 -0.0625 20.109375 -3.3125 C 17.023438 -6.570312 15.484375 -10.992188 15.484375 -16.578125 L 15.484375 -38.65625 L 5.265625 -38.65625 L 5.265625 -48.640625 L 15.484375 -48.640625 L 15.484375 -59.1875 L 29.953125 -60.921875 L 29.953125 -48.640625 L 45.625 -48.640625 L 44.203125 -38.65625 L 29.953125 -38.65625 L 29.953125 -16.578125 C 29.953125 -14.171875 30.5 -12.445312 31.59375 -11.40625 C 32.695312 -10.363281 34.457031 -9.84375 36.875 -9.84375 C 38.582031 -9.84375 40.144531 -10.046875 41.5625 -10.453125 C 42.988281 -10.867188 44.265625 -11.398438 45.390625 -12.046875 Z M 50.203125 -2.84375 "/>
            </g>
        </g>
    </g>
    <g fill="#1971c2" fill-opacity="1">
        <g transform="translate(657.21677, 118.818243)">
            <g>
                <path d="M 18.96875 -20.109375 C 19.300781 -17.453125 19.992188 -15.304688 21.046875 -13.671875 C 22.097656 -12.035156 23.445312 -10.84375 25.09375 -10.09375 C 26.75 -9.351562 28.597656 -8.984375 30.640625 -8.984375 C 32.867188 -8.984375 35.019531 -9.347656 37.09375 -10.078125 C 39.175781 -10.804688 41.179688 -11.785156 43.109375 -13.015625 L 48.921875 -5.125 C 46.628906 -3.175781 43.859375 -1.570312 40.609375 -0.3125 C 37.359375 0.9375 33.65625 1.5625 29.5 1.5625 C 23.9375 1.5625 19.273438 0.457031 15.515625 -1.75 C 11.765625 -3.96875 8.941406 -7.015625 7.046875 -10.890625 C 5.160156 -14.773438 4.21875 -19.238281 4.21875 -24.28125 C 4.21875 -29.070312 5.128906 -33.425781 6.953125 -37.34375 C 8.785156 -41.269531 11.46875 -44.398438 15 -46.734375 C 18.53125 -49.078125 22.84375 -50.25 27.9375 -50.25 C 32.582031 -50.25 36.609375 -49.253906 40.015625 -47.265625 C 43.421875 -45.285156 46.0625 -42.429688 47.9375 -38.703125 C 49.8125 -34.972656 50.75 -30.5 50.75 -25.28125 C 50.75 -24.457031 50.722656 -23.570312 50.671875 -22.625 C 50.628906 -21.675781 50.566406 -20.835938 50.484375 -20.109375 Z M 27.9375 -40.53125 C 25.34375 -40.53125 23.25 -39.597656 21.65625 -37.734375 C 20.070312 -35.878906 19.113281 -32.90625 18.78125 -28.8125 L 36.640625 -28.8125 C 36.609375 -32.351562 35.921875 -35.191406 34.578125 -37.328125 C 33.234375 -39.460938 31.019531 -40.53125 27.9375 -40.53125 Z M 27.9375 -40.53125 "/>
            </g>
        </g>
    </g>
    <g fill="#1971c2" fill-opacity="1">
        <g transform="translate(710.808325, 118.818243)">
            <g>
                <path d="M 25.921875 -8.796875 C 28.335938 -8.796875 30.285156 -9.175781 31.765625 -9.9375 C 33.242188 -10.695312 33.984375 -11.84375 33.984375 -13.375 C 33.984375 -14.414062 33.691406 -15.285156 33.109375 -15.984375 C 32.535156 -16.691406 31.421875 -17.363281 29.765625 -18 C 28.117188 -18.644531 25.675781 -19.410156 22.4375 -20.296875 C 19.476562 -21.085938 16.859375 -22.09375 14.578125 -23.3125 C 12.304688 -24.53125 10.535156 -26.101562 9.265625 -28.03125 C 8.003906 -29.957031 7.375 -32.351562 7.375 -35.21875 C 7.375 -38.125 8.179688 -40.707031 9.796875 -42.96875 C 11.421875 -45.226562 13.804688 -47.003906 16.953125 -48.296875 C 20.097656 -49.597656 23.941406 -50.25 28.484375 -50.25 C 32.828125 -50.25 36.609375 -49.691406 39.828125 -48.578125 C 43.046875 -47.460938 45.832031 -46.050781 48.1875 -44.34375 L 42.421875 -35.8125 C 40.398438 -37.070312 38.226562 -38.070312 35.90625 -38.8125 C 33.59375 -39.5625 31.257812 -39.9375 28.90625 -39.9375 C 26.550781 -39.9375 24.800781 -39.625 23.65625 -39 C 22.507812 -38.375 21.9375 -37.4375 21.9375 -36.1875 C 21.9375 -35.363281 22.234375 -34.648438 22.828125 -34.046875 C 23.429688 -33.453125 24.554688 -32.84375 26.203125 -32.21875 C 27.847656 -31.59375 30.257812 -30.820312 33.4375 -29.90625 C 36.582031 -29.019531 39.320312 -27.992188 41.65625 -26.828125 C 43.988281 -25.671875 45.796875 -24.125 47.078125 -22.1875 C 48.367188 -20.25 49.015625 -17.691406 49.015625 -14.515625 C 49.015625 -10.972656 47.957031 -8.003906 45.84375 -5.609375 C 43.738281 -3.210938 40.945312 -1.414062 37.46875 -0.21875 C 33.988281 0.96875 30.171875 1.5625 26.015625 1.5625 C 21.316406 1.5625 17.164062 0.890625 13.5625 -0.453125 C 9.957031 -1.796875 6.882812 -3.566406 4.34375 -5.765625 L 11.640625 -13.921875 C 13.523438 -12.453125 15.664062 -11.226562 18.0625 -10.25 C 20.46875 -9.28125 23.085938 -8.796875 25.921875 -8.796875 Z M 25.921875 -8.796875 "/>
            </g>
        </g>
    </g>
</svg>