<svg xmlns="http://www.w3.org/2000/svg" width="1143" zoomAndPan="magnify"
     viewBox="0 0 857.25 231.75" height="309" preserveAspectRatio="xMidYMid meet" version="1.0">
    <defs>
        <g/>
    </defs>
    <g fill="#1971c2" fill-opacity="1">
        <g transform="translate(44.593498, 153.91694)">
            <g>
                <path d="M 67.40625 -24.03125 C 67.40625 -18.925781 66.066406 -14.414062 63.390625 -10.5 C 60.722656 -6.582031 56.894531 -3.515625 51.90625 -1.296875 C 46.925781 0.910156 40.9375 2.015625 33.9375 2.015625 C 26.1875 2.015625 19.691406 0.878906 14.453125 -1.390625 C 9.210938 -3.671875 4.867188 -6.488281 1.421875 -9.84375 L 11.28125 -20.765625 C 14.320312 -18.117188 17.679688 -16.070312 21.359375 -14.625 C 25.035156 -13.175781 29.070312 -12.453125 33.46875 -12.453125 C 36.195312 -12.453125 38.585938 -12.847656 40.640625 -13.640625 C 42.703125 -14.429688 44.304688 -15.578125 45.453125 -17.078125 C 46.597656 -18.585938 47.171875 -20.410156 47.171875 -22.546875 C 47.171875 -24.566406 46.710938 -26.269531 45.796875 -27.65625 C 44.890625 -29.039062 43.359375 -30.285156 41.203125 -31.390625 C 39.046875 -32.492188 36.050781 -33.617188 32.21875 -34.765625 C 25.8125 -36.742188 20.660156 -38.921875 16.765625 -41.296875 C 12.867188 -43.671875 10.039062 -46.421875 8.28125 -49.546875 C 6.519531 -52.671875 5.640625 -56.3125 5.640625 -60.46875 C 5.640625 -65.488281 7.03125 -69.773438 9.8125 -73.328125 C 12.601562 -76.890625 16.351562 -79.609375 21.0625 -81.484375 C 25.769531 -83.367188 30.953125 -84.3125 36.609375 -84.3125 C 42.972656 -84.3125 48.585938 -83.390625 53.453125 -81.546875 C 58.328125 -79.710938 62.539062 -77.09375 66.09375 -73.6875 L 56.90625 -63.140625 C 54.132812 -65.472656 51.144531 -67.203125 47.9375 -68.328125 C 44.738281 -69.453125 41.476562 -70.015625 38.15625 -70.015625 C 35.695312 -70.015625 33.535156 -69.707031 31.671875 -69.09375 C 29.816406 -68.476562 28.375 -67.578125 27.34375 -66.390625 C 26.320312 -65.203125 25.8125 -63.722656 25.8125 -61.953125 C 25.8125 -60.210938 26.304688 -58.75 27.296875 -57.5625 C 28.285156 -56.375 30.003906 -55.253906 32.453125 -54.203125 C 34.910156 -53.148438 38.3125 -51.929688 42.65625 -50.546875 C 47.84375 -48.972656 52.285156 -47.085938 55.984375 -44.890625 C 59.679688 -42.691406 62.507812 -39.929688 64.46875 -36.609375 C 66.425781 -33.285156 67.40625 -29.09375 67.40625 -24.03125 Z M 67.40625 -24.03125 "/>
            </g>
        </g>
    </g>
    <g fill="#1971c2" fill-opacity="1">
        <g transform="translate(114.015898, 153.91694)">
            <g>
                <path d="M 24.5625 -26.046875 C 25 -22.609375 25.898438 -19.828125 27.265625 -17.703125 C 28.628906 -15.585938 30.378906 -14.046875 32.515625 -13.078125 C 34.648438 -12.109375 37.046875 -11.625 39.703125 -11.625 C 42.585938 -11.625 45.375 -12.097656 48.0625 -13.046875 C 50.75 -14.003906 53.335938 -15.269531 55.828125 -16.84375 L 63.375 -6.640625 C 60.40625 -4.109375 56.8125 -2.03125 52.59375 -0.40625 C 48.382812 1.207031 43.59375 2.015625 38.21875 2.015625 C 31.007812 2.015625 24.972656 0.582031 20.109375 -2.28125 C 15.242188 -5.15625 11.582031 -9.101562 9.125 -14.125 C 6.675781 -19.144531 5.453125 -24.921875 5.453125 -31.453125 C 5.453125 -37.660156 6.640625 -43.304688 9.015625 -48.390625 C 11.390625 -53.472656 14.859375 -57.523438 19.421875 -60.546875 C 23.992188 -63.578125 29.582031 -65.09375 36.1875 -65.09375 C 42.207031 -65.09375 47.421875 -63.804688 51.828125 -61.234375 C 56.242188 -58.660156 59.664062 -54.960938 62.09375 -50.140625 C 64.53125 -45.316406 65.75 -39.519531 65.75 -32.75 C 65.75 -31.6875 65.71875 -30.539062 65.65625 -29.3125 C 65.59375 -28.082031 65.503906 -26.992188 65.390625 -26.046875 Z M 36.1875 -52.515625 C 32.832031 -52.515625 30.125 -51.304688 28.0625 -48.890625 C 26.007812 -46.472656 24.765625 -42.617188 24.328125 -37.328125 L 47.46875 -37.328125 C 47.425781 -41.910156 46.535156 -45.585938 44.796875 -48.359375 C 43.054688 -51.128906 40.1875 -52.515625 36.1875 -52.515625 Z M 36.1875 -52.515625 "/>
            </g>
        </g>
    </g>
    <g fill="#1971c2" fill-opacity="1">
        <g transform="translate(183.438297, 153.91694)">
            <g>
                <path d="M 41.71875 -12.75 C 44.28125 -12.75 46.695312 -13.253906 48.96875 -14.265625 C 51.25 -15.273438 53.519531 -16.570312 55.78125 -18.15625 L 64.140625 -6.296875 C 61.367188 -3.921875 57.992188 -1.941406 54.015625 -0.359375 C 50.046875 1.222656 45.609375 2.015625 40.703125 2.015625 C 33.941406 2.015625 28.128906 0.625 23.265625 -2.15625 C 18.398438 -4.945312 14.660156 -8.828125 12.046875 -13.796875 C 9.429688 -18.765625 8.125 -24.53125 8.125 -31.09375 C 8.125 -37.65625 9.457031 -43.5 12.125 -48.625 C 14.800781 -53.75 18.597656 -57.773438 23.515625 -60.703125 C 28.441406 -63.628906 34.289062 -65.09375 41.0625 -65.09375 C 45.84375 -65.09375 50.101562 -64.425781 53.84375 -63.09375 C 57.582031 -61.769531 61.015625 -59.804688 64.140625 -57.203125 L 56.015625 -45.921875 C 53.878906 -47.429688 51.625 -48.597656 49.25 -49.421875 C 46.875 -50.253906 44.398438 -50.671875 41.828125 -50.671875 C 37.597656 -50.671875 34.1875 -49.175781 31.59375 -46.1875 C 29 -43.207031 27.703125 -38.175781 27.703125 -31.09375 C 27.703125 -26.46875 28.316406 -22.816406 29.546875 -20.140625 C 30.773438 -17.472656 32.445312 -15.570312 34.5625 -14.4375 C 36.675781 -13.3125 39.0625 -12.75 41.71875 -12.75 Z M 41.71875 -12.75 "/>
            </g>
        </g>
    </g>
    <g fill="#1971c2" fill-opacity="1">
        <g transform="translate(252.860697, 153.91694)">
            <g>
                <path d="M 27.0625 -63.015625 L 27.0625 -19.875 C 27.0625 -16.832031 27.625 -14.738281 28.75 -13.59375 C 29.875 -12.445312 31.445312 -11.875 33.46875 -11.875 C 35.40625 -11.875 37.34375 -12.484375 39.28125 -13.703125 C 41.21875 -14.929688 42.835938 -16.59375 44.140625 -18.6875 L 44.140625 -63.015625 L 62.890625 -63.015625 L 62.890625 0 L 46.515625 0 L 45.6875 -7.359375 C 43.550781 -4.273438 40.742188 -1.941406 37.265625 -0.359375 C 33.785156 1.222656 30.144531 2.015625 26.34375 2.015625 C 20.25 2.015625 15.71875 0.242188 12.75 -3.296875 C 9.789062 -6.835938 8.3125 -11.59375 8.3125 -17.5625 L 8.3125 -63.015625 Z M 27.0625 -63.015625 "/>
            </g>
        </g>
    </g>
    <g fill="#1971c2" fill-opacity="1">
        <g transform="translate(322.283097, 153.91694)">
            <g>
                <path d="M 8.90625 0 L 8.90625 -12.578125 L 17.203125 -12.578125 L 17.203125 -50.546875 L 8.90625 -50.546875 L 8.90625 -63.015625 L 31.5 -63.015625 L 34.953125 -48.828125 C 37.203125 -54.253906 40.078125 -58.289062 43.578125 -60.9375 C 47.078125 -63.582031 51.359375 -64.90625 56.421875 -64.90625 C 58.554688 -64.90625 60.453125 -64.738281 62.109375 -64.40625 C 63.773438 -64.070312 65.34375 -63.609375 66.8125 -63.015625 L 61.109375 -47.53125 C 59.960938 -47.84375 58.816406 -48.078125 57.671875 -48.234375 C 56.523438 -48.398438 55.257812 -48.484375 53.875 -48.484375 C 49.757812 -48.484375 46.148438 -46.800781 43.046875 -43.4375 C 39.941406 -40.070312 37.578125 -35.800781 35.953125 -30.625 L 35.953125 -12.578125 L 48.421875 -12.578125 L 48.421875 0 Z M 51.5625 -36.671875 L 51.5625 -55.0625 L 54.359375 -63.015625 L 66.8125 -63.015625 L 63.3125 -36.671875 Z M 51.5625 -36.671875 "/>
            </g>
        </g>
    </g>
    <g fill="#1971c2" fill-opacity="1">
        <g transform="translate(391.705496, 153.91694)">
            <g>
                <path d="M 24.5625 -26.046875 C 25 -22.609375 25.898438 -19.828125 27.265625 -17.703125 C 28.628906 -15.585938 30.378906 -14.046875 32.515625 -13.078125 C 34.648438 -12.109375 37.046875 -11.625 39.703125 -11.625 C 42.585938 -11.625 45.375 -12.097656 48.0625 -13.046875 C 50.75 -14.003906 53.335938 -15.269531 55.828125 -16.84375 L 63.375 -6.640625 C 60.40625 -4.109375 56.8125 -2.03125 52.59375 -0.40625 C 48.382812 1.207031 43.59375 2.015625 38.21875 2.015625 C 31.007812 2.015625 24.972656 0.582031 20.109375 -2.28125 C 15.242188 -5.15625 11.582031 -9.101562 9.125 -14.125 C 6.675781 -19.144531 5.453125 -24.921875 5.453125 -31.453125 C 5.453125 -37.660156 6.640625 -43.304688 9.015625 -48.390625 C 11.390625 -53.472656 14.859375 -57.523438 19.421875 -60.546875 C 23.992188 -63.578125 29.582031 -65.09375 36.1875 -65.09375 C 42.207031 -65.09375 47.421875 -63.804688 51.828125 -61.234375 C 56.242188 -58.660156 59.664062 -54.960938 62.09375 -50.140625 C 64.53125 -45.316406 65.75 -39.519531 65.75 -32.75 C 65.75 -31.6875 65.71875 -30.539062 65.65625 -29.3125 C 65.59375 -28.082031 65.503906 -26.992188 65.390625 -26.046875 Z M 36.1875 -52.515625 C 32.832031 -52.515625 30.125 -51.304688 28.0625 -48.890625 C 26.007812 -46.472656 24.765625 -42.617188 24.328125 -37.328125 L 47.46875 -37.328125 C 47.425781 -41.910156 46.535156 -45.585938 44.796875 -48.359375 C 43.054688 -51.128906 40.1875 -52.515625 36.1875 -52.515625 Z M 36.1875 -52.515625 "/>
            </g>
        </g>
    </g>
    <g fill="#1971c2" fill-opacity="1">
        <g transform="translate(462.451602, 153.91694)">
            <g>
                <path d="M 41.421875 0 L 19.765625 -66.15625 C 20.035156 -64.375 20.335938 -62.226562 20.671875 -59.71875 C 21.015625 -57.207031 21.34375 -54.414062 21.65625 -51.34375 C 21.96875 -48.28125 22.222656 -45.03125 22.421875 -41.59375 C 22.617188 -38.15625 22.71875 -34.632812 22.71875 -31.03125 L 22.71875 0 L 6.171875 0 L 6.171875 -82.234375 L 30.4375 -82.234375 L 51.4375 -16.4375 C 51.007812 -18.925781 50.566406 -21.898438 50.109375 -25.359375 C 49.648438 -28.828125 49.265625 -32.695312 48.953125 -36.96875 C 48.640625 -41.238281 48.484375 -45.828125 48.484375 -50.734375 L 48.484375 -82.234375 L 65.03125 -82.234375 L 65.03125 0 Z M 41.421875 0 "/>
            </g>
        </g>
    </g>
    <g fill="#1971c2" fill-opacity="1">
        <g transform="translate(531.874002, 153.91694)">
            <g>
                <path d="M 35.609375 -65.09375 C 42.085938 -65.09375 47.601562 -63.707031 52.15625 -60.9375 C 56.707031 -58.164062 60.1875 -54.273438 62.59375 -49.265625 C 65.007812 -44.265625 66.21875 -38.40625 66.21875 -31.6875 C 66.21875 -24.6875 65 -18.660156 62.5625 -13.609375 C 60.132812 -8.566406 56.644531 -4.703125 52.09375 -2.015625 C 47.539062 0.671875 42.046875 2.015625 35.609375 2.015625 C 29.191406 2.015625 23.695312 0.691406 19.125 -1.953125 C 14.5625 -4.609375 11.0625 -8.445312 8.625 -13.46875 C 6.195312 -18.488281 4.984375 -24.519531 4.984375 -31.5625 C 4.984375 -38.25 6.195312 -44.101562 8.625 -49.125 C 11.0625 -54.15625 14.5625 -58.070312 19.125 -60.875 C 23.695312 -63.6875 29.191406 -65.09375 35.609375 -65.09375 Z M 35.609375 -51.265625 C 31.765625 -51.265625 28.921875 -49.691406 27.078125 -46.546875 C 25.242188 -43.398438 24.328125 -38.40625 24.328125 -31.5625 C 24.328125 -24.601562 25.242188 -19.5625 27.078125 -16.4375 C 28.921875 -13.3125 31.765625 -11.75 35.609375 -11.75 C 39.441406 -11.75 42.273438 -13.3125 44.109375 -16.4375 C 45.953125 -19.5625 46.875 -24.644531 46.875 -31.6875 C 46.875 -38.488281 45.953125 -43.453125 44.109375 -46.578125 C 42.273438 -49.703125 39.441406 -51.265625 35.609375 -51.265625 Z M 35.609375 -51.265625 "/>
            </g>
        </g>
    </g>
    <g fill="#1971c2" fill-opacity="1">
        <g transform="translate(601.296402, 153.91694)">
            <g>
                <path d="M 65.03125 -3.671875 C 62.582031 -2.097656 59.613281 -0.757812 56.125 0.34375 C 52.644531 1.457031 48.734375 2.015625 44.390625 2.015625 C 36.160156 2.015625 30.046875 -0.0859375 26.046875 -4.296875 C 22.054688 -8.515625 20.0625 -14.242188 20.0625 -21.484375 L 20.0625 -50.078125 L 6.828125 -50.078125 L 6.828125 -63.015625 L 20.0625 -63.015625 L 20.0625 -76.65625 L 38.8125 -78.921875 L 38.8125 -63.015625 L 59.09375 -63.015625 L 57.265625 -50.078125 L 38.8125 -50.078125 L 38.8125 -21.484375 C 38.8125 -18.359375 39.519531 -16.117188 40.9375 -14.765625 C 42.363281 -13.421875 44.640625 -12.75 47.765625 -12.75 C 49.984375 -12.75 52.007812 -13.015625 53.84375 -13.546875 C 55.6875 -14.085938 57.335938 -14.773438 58.796875 -15.609375 Z M 65.03125 -3.671875 "/>
            </g>
        </g>
    </g>
    <g fill="#1971c2" fill-opacity="1">
        <g transform="translate(670.718801, 153.91694)">
            <g>
                <path d="M 24.5625 -26.046875 C 25 -22.609375 25.898438 -19.828125 27.265625 -17.703125 C 28.628906 -15.585938 30.378906 -14.046875 32.515625 -13.078125 C 34.648438 -12.109375 37.046875 -11.625 39.703125 -11.625 C 42.585938 -11.625 45.375 -12.097656 48.0625 -13.046875 C 50.75 -14.003906 53.335938 -15.269531 55.828125 -16.84375 L 63.375 -6.640625 C 60.40625 -4.109375 56.8125 -2.03125 52.59375 -0.40625 C 48.382812 1.207031 43.59375 2.015625 38.21875 2.015625 C 31.007812 2.015625 24.972656 0.582031 20.109375 -2.28125 C 15.242188 -5.15625 11.582031 -9.101562 9.125 -14.125 C 6.675781 -19.144531 5.453125 -24.921875 5.453125 -31.453125 C 5.453125 -37.660156 6.640625 -43.304688 9.015625 -48.390625 C 11.390625 -53.472656 14.859375 -57.523438 19.421875 -60.546875 C 23.992188 -63.578125 29.582031 -65.09375 36.1875 -65.09375 C 42.207031 -65.09375 47.421875 -63.804688 51.828125 -61.234375 C 56.242188 -58.660156 59.664062 -54.960938 62.09375 -50.140625 C 64.53125 -45.316406 65.75 -39.519531 65.75 -32.75 C 65.75 -31.6875 65.71875 -30.539062 65.65625 -29.3125 C 65.59375 -28.082031 65.503906 -26.992188 65.390625 -26.046875 Z M 36.1875 -52.515625 C 32.832031 -52.515625 30.125 -51.304688 28.0625 -48.890625 C 26.007812 -46.472656 24.765625 -42.617188 24.328125 -37.328125 L 47.46875 -37.328125 C 47.425781 -41.910156 46.535156 -45.585938 44.796875 -48.359375 C 43.054688 -51.128906 40.1875 -52.515625 36.1875 -52.515625 Z M 36.1875 -52.515625 "/>
            </g>
        </g>
    </g>
    <g fill="#1971c2" fill-opacity="1">
        <g transform="translate(740.141201, 153.91694)">
            <g>
                <path d="M 33.578125 -11.390625 C 36.703125 -11.390625 39.222656 -11.882812 41.140625 -12.875 C 43.066406 -13.863281 44.03125 -15.347656 44.03125 -17.328125 C 44.03125 -18.671875 43.648438 -19.796875 42.890625 -20.703125 C 42.140625 -21.617188 40.695312 -22.488281 38.5625 -23.3125 C 36.425781 -24.144531 33.265625 -25.132812 29.078125 -26.28125 C 25.234375 -27.3125 21.835938 -28.617188 18.890625 -30.203125 C 15.953125 -31.785156 13.660156 -33.820312 12.015625 -36.3125 C 10.367188 -38.800781 9.546875 -41.90625 9.546875 -45.625 C 9.546875 -49.382812 10.59375 -52.726562 12.6875 -55.65625 C 14.789062 -58.582031 17.878906 -60.882812 21.953125 -62.5625 C 26.023438 -64.25 31.007812 -65.09375 36.90625 -65.09375 C 42.519531 -65.09375 47.414062 -64.367188 51.59375 -62.921875 C 55.769531 -61.484375 59.378906 -59.65625 62.421875 -57.4375 L 54.9375 -46.40625 C 52.332031 -48.019531 49.523438 -49.3125 46.515625 -50.28125 C 43.515625 -51.25 40.488281 -51.734375 37.4375 -51.734375 C 34.394531 -51.734375 32.128906 -51.328125 30.640625 -50.515625 C 29.160156 -49.710938 28.421875 -48.5 28.421875 -46.875 C 28.421875 -45.800781 28.804688 -44.878906 29.578125 -44.109375 C 30.347656 -43.335938 31.800781 -42.546875 33.9375 -41.734375 C 36.070312 -40.929688 39.195312 -39.9375 43.3125 -38.75 C 47.382812 -37.601562 50.929688 -36.273438 53.953125 -34.765625 C 56.984375 -33.265625 59.328125 -31.257812 60.984375 -28.75 C 62.648438 -26.238281 63.484375 -22.925781 63.484375 -18.8125 C 63.484375 -14.21875 62.117188 -10.367188 59.390625 -7.265625 C 56.660156 -4.160156 53.039062 -1.835938 48.53125 -0.296875 C 44.019531 1.242188 39.078125 2.015625 33.703125 2.015625 C 27.609375 2.015625 22.226562 1.144531 17.5625 -0.59375 C 12.894531 -2.332031 8.921875 -4.625 5.640625 -7.46875 L 15.078125 -18.03125 C 17.523438 -16.132812 20.300781 -14.550781 23.40625 -13.28125 C 26.507812 -12.019531 29.898438 -11.390625 33.578125 -11.390625 Z M 33.578125 -11.390625 "/>
            </g>
        </g>
    </g>
</svg>